# xmcd CD database file
#
# Track frame offsets:
#	182
#	16415
#	34340
#	51065
#	69912
#	94712
#	108062
#	137990
#	155087
#	172152
#	191922
#	211900
#	230980
#	249955
#	263857
#	280927
#	305992
#	322480
#
# Disc length: 4539 seconds
#
# Revision: 1
# Processed by: cddbd v1.5.1PL0 Copyright (c) Steve Scherf et al.
# Submitted via: CDex 1.51
#
DISCID=1711b912
DTITLE=Alexis Korner - Alexis Korner and...1972-1983
DYEAR=1988
DGENRE=Blues
TTITLE0=Gospel Ship
TTITLE1=Captain Ameria
TTITLE2=The Thief
TTITLE3=Robert Johnson
TTITLE4=Get Off Of My Cloud
TTITLE5=Honky Tonk Women
TTITLE6=Spoonful
TTITLE7=Daytime Song
TTITLE8=Lend Me Some Time
TTITLE9=Hey Pretty Mama
TTITLE10=Stump Blues
TTITLE11=I Got My Mojo Working
TTITLE12=Geneva
TTITLE13=Wreck Of The Old '97
TTITLE14=Casey Jones
TTITLE15=High Heeled Sneakers
TTITLE16=King BB
TTITLE17=Juvenile Delinquent
EXTD=Castle Communictions YEAR: 1988
EXTT0=
EXTT1=
EXTT2=
EXTT3=
EXTT4=
EXTT5=
EXTT6=
EXTT7=
EXTT8=
EXTT9=
EXTT10=
EXTT11=
EXTT12=
EXTT13=
EXTT14=
EXTT15=
EXTT16=
EXTT17=
PLAYORDER=
